<svg xmlns="http://www.w3.org/2000/svg" viewBox="0 0 64 64" role="img" aria-label="moth icon">
  <defs>
    <linearGradient id="g" x1="0" y1="0" x2="1" y2="1">
      <stop offset="0%" stop-color="#67c1ff"/>
      <stop offset="100%" stop-color="#0ea5e9"/>
    </linearGradient>
  </defs>
  <rect x="2" y="2" width="60" height="60" rx="14" fill="#111827"/>
  <g fill="url(#g)">
    <path d="M11 25c8 0 13 4 17 9-4 5-9 9-17 9 4-6 4-12 0-18z"/>
    <path d="M53 25c-8 0-13 4-17 9 4 5 9 9 17 9-4-6-4-12 0-18z"/>
    <path d="M32 22c3 0 5 2 5 5v17h-10V27c0-3 2-5 5-5z"/>
    <circle cx="32" cy="18" r="4"/>
  </g>
</svg>
